<?xml version="1.0" encoding="UTF-8" standalone="no"?>
<!DOCTYPE svg PUBLIC "-//W3C//DTD SVG 1.1//EN"
 "http://www.w3.org/Graphics/SVG/1.1/DTD/svg11.dtd">
<!-- Generated by graphviz version 14.0.2 (20251019.1705)
 -->
<!-- Title: http_parser Pages: 1 -->
<svg width="958pt" height="149pt"
 viewBox="0.00 0.00 958.00 149.00" xmlns="http://www.w3.org/2000/svg" xmlns:xlink="http://www.w3.org/1999/xlink">
<g id="graph0" class="graph" transform="scale(1 1) rotate(0) translate(4 145.3)">
<title>http_parser</title>
<polygon fill="white" stroke="none" points="-4,4 -4,-145.3 953.55,-145.3 953.55,4 -4,4"/>
<!-- ENTRY -->
<g id="node1" class="node">
<title>ENTRY</title>
<ellipse fill="black" stroke="black" cx="1.8" cy="-33.4" rx="1.8" ry="1.8"/>
</g>
<!-- 1 -->
<g id="node3" class="node">
<title>1</title>
<ellipse fill="none" stroke="black" cx="77.25" cy="-33.4" rx="23.4" ry="23.4"/>
<text xml:space="preserve" text-anchor="middle" x="77.25" y="-28.35" font-family="Times,serif" font-size="14.00">1</text>
</g>
<!-- ENTRY&#45;&gt;1 -->
<g id="edge8" class="edge">
<title>ENTRY&#45;&gt;1</title>
<path fill="none" stroke="black" d="M4.07,-33.4C8.81,-33.4 25.97,-33.4 42.36,-33.4"/>
<polygon fill="black" stroke="black" points="41.92,-36.9 51.92,-33.4 41.92,-29.9 41.92,-36.9"/>
<text xml:space="preserve" text-anchor="middle" x="28.72" y="-36.6" font-family="Times,serif" font-size="14.00">IN</text>
</g>
<!-- 5 -->
<g id="node2" class="node">
<title>5</title>
<ellipse fill="none" stroke="black" cx="539.35" cy="-79.4" rx="23.4" ry="23.4"/>
<ellipse fill="none" stroke="black" cx="539.35" cy="-79.4" rx="27.4" ry="27.4"/>
<text xml:space="preserve" text-anchor="middle" x="539.35" y="-74.35" font-family="Times,serif" font-size="14.00">5</text>
</g>
<!-- 5&#45;&gt;5 -->
<g id="edge6" class="edge">
<title>5&#45;&gt;5</title>
<path fill="none" stroke="black" d="M529.63,-105.53C529.08,-116 532.32,-124.8 539.35,-124.8 543.63,-124.8 546.51,-121.53 547.98,-116.61"/>
<polygon fill="black" stroke="black" points="551.42,-117.33 548.92,-107.03 544.46,-116.64 551.42,-117.33"/>
<text xml:space="preserve" text-anchor="middle" x="539.35" y="-128" font-family="Times,serif" font-size="14.00">33, 36, 38..59, 61, 64..90, 95, 97..122, 126</text>
</g>
<!-- 3 -->
<g id="node5" class="node">
<title>3</title>
<ellipse fill="none" stroke="black" cx="678.87" cy="-23.4" rx="23.4" ry="23.4"/>
<text xml:space="preserve" text-anchor="middle" x="678.87" y="-18.35" font-family="Times,serif" font-size="14.00">3</text>
</g>
<!-- 5&#45;&gt;3 -->
<g id="edge7" class="edge">
<title>5&#45;&gt;3</title>
<path fill="none" stroke="black" d="M562.32,-64.24C569.28,-59.87 577.15,-55.35 584.75,-51.9 604.04,-43.15 626.75,-36.14 644.92,-31.26"/>
<polygon fill="black" stroke="black" points="645.57,-34.71 654.38,-28.81 643.82,-27.93 645.57,-34.71"/>
<text xml:space="preserve" text-anchor="middle" x="591.5" y="-55.1" font-family="Times,serif" font-size="14.00">37</text>
</g>
<!-- 2 -->
<g id="node4" class="node">
<title>2</title>
<ellipse fill="none" stroke="black" cx="173.55" cy="-33.4" rx="23.4" ry="23.4"/>
<text xml:space="preserve" text-anchor="middle" x="173.55" y="-28.35" font-family="Times,serif" font-size="14.00">2</text>
</g>
<!-- 1&#45;&gt;2 -->
<g id="edge1" class="edge">
<title>1&#45;&gt;2</title>
<path fill="none" stroke="black" d="M101.08,-33.4C112.31,-33.4 126.09,-33.4 138.53,-33.4"/>
<polygon fill="black" stroke="black" points="138.42,-36.9 148.42,-33.4 138.42,-29.9 138.42,-36.9"/>
<text xml:space="preserve" text-anchor="middle" x="125.4" y="-36.6" font-family="Times,serif" font-size="14.00">47</text>
</g>
<!-- 2&#45;&gt;5 -->
<g id="edge2" class="edge">
<title>2&#45;&gt;5</title>
<path fill="none" stroke="black" d="M197.03,-36.24C257.62,-43.9 424.78,-65.04 500.37,-74.6"/>
<polygon fill="black" stroke="black" points="499.82,-78.06 510.18,-75.84 500.7,-71.11 499.82,-78.06"/>
<text xml:space="preserve" text-anchor="middle" x="354.45" y="-76.9" font-family="Times,serif" font-size="14.00">33, 36, 38..46, 48..59, 61, 64..90, 95, 97..122, 126</text>
</g>
<!-- 2&#45;&gt;3 -->
<g id="edge3" class="edge">
<title>2&#45;&gt;3</title>
<path fill="none" stroke="black" d="M197.15,-32.95C277.23,-31.36 547.69,-25.99 643.71,-24.08"/>
<polygon fill="black" stroke="black" points="643.6,-27.58 653.53,-23.88 643.46,-20.58 643.6,-27.58"/>
<text xml:space="preserve" text-anchor="middle" x="539.35" y="-29.8" font-family="Times,serif" font-size="14.00">37</text>
</g>
<!-- 4 -->
<g id="node6" class="node">
<title>4</title>
<ellipse fill="none" stroke="black" cx="926.15" cy="-53.4" rx="23.4" ry="23.4"/>
<text xml:space="preserve" text-anchor="middle" x="926.15" y="-48.35" font-family="Times,serif" font-size="14.00">4</text>
</g>
<!-- 3&#45;&gt;4 -->
<g id="edge4" class="edge">
<title>3&#45;&gt;4</title>
<path fill="none" stroke="black" d="M702.51,-26.17C745.77,-31.46 840.39,-43.03 891.23,-49.25"/>
<polygon fill="black" stroke="black" points="890.72,-52.71 901.07,-50.45 891.57,-45.77 890.72,-52.71"/>
<text xml:space="preserve" text-anchor="middle" x="822.12" y="-51.57" font-family="Times,serif" font-size="14.00">48..57, 65..70, 97..102</text>
</g>
<!-- 4&#45;&gt;5 -->
<g id="edge5" class="edge">
<title>4&#45;&gt;5</title>
<path fill="none" stroke="black" d="M904.14,-62.66C898,-64.96 891.21,-67.13 884.75,-68.4 775.05,-89.92 641.99,-85.88 578.13,-82.13"/>
<polygon fill="black" stroke="black" points="578.74,-78.67 568.54,-81.54 578.31,-85.65 578.74,-78.67"/>
<text xml:space="preserve" text-anchor="middle" x="678.87" y="-88.32" font-family="Times,serif" font-size="14.00">48..57, 65..70, 97..102</text>
</g>
</g>
</svg>
